<mxfile host="app.diagrams.net" modified="2022-03-23T13:16:45.634Z" agent="5.0 (Windows NT 10.0; Win64; x64) AppleWebKit/537.36 (KHTML, like Gecko) Chrome/99.0.4844.74 Safari/537.36 Edg/99.0.1150.46" etag="arxak1tqJFIOn0n79eBx" version="17.2.0" type="github">
  <diagram id="9cflvcwtjA-tLRE_iXWf" name="第 1 页">
    <mxGraphModel dx="73" dy="44" grid="1" gridSize="1" guides="1" tooltips="1" connect="1" arrows="1" fold="1" page="1" pageScale="1" pageWidth="827" pageHeight="1169" background="none" math="0" shadow="0">
      <root>
        <mxCell id="0" />
        <mxCell id="1" parent="0" />
        <mxCell id="2R5zI-XPfUaBdaK0osu_-2" value="" style="shape=image;verticalLabelPosition=bottom;labelBackgroundColor=default;verticalAlign=top;aspect=fixed;imageAspect=0;image=data:image/svg+xml,PHN2ZyB4bWxuczp4bGluaz0iaHR0cDovL3d3dy53My5vcmcvMTk5OS94bGluayIgeG1sbnM9Imh0dHA6Ly93d3cudzMub3JnLzIwMDAvc3ZnIiB3aWR0aD0iMzQuMzUyZXgiIGhlaWdodD0iNy4zNDNleCIgc3R5bGU9ImZvbnQtc2l6ZTogMTVweDsgdmVydGljYWwtYWxpZ246IC0zLjAwNWV4OyIgdmlld0JveD0iMCAtMTg2Ny43IDE0NzkwLjIgMzE2MS40IiByb2xlPSJpbWciIGZvY3VzYWJsZT0iZmFsc2UiPiYjeGE7PGRlZnM+JiN4YTs8cGF0aCBzdHJva2Utd2lkdGg9IjEiIGlkPSJFMS1NSk1BVEhJLTY4IiBkPSJNMTM3IDY4M1ExMzggNjgzIDIwOSA2ODhUMjgyIDY5NFEyOTQgNjk0IDI5NCA2ODVRMjk0IDY3NCAyNTggNTM0UTIyMCAzODYgMjIwIDM4M1EyMjAgMzgxIDIyNyAzODhRMjg4IDQ0MiAzNTcgNDQyUTQxMSA0NDIgNDQ0IDQxNVQ0NzggMzM2UTQ3OCAyODUgNDQwIDE3OFQ0MDIgNTBRNDAzIDM2IDQwNyAzMVQ0MjIgMjZRNDUwIDI2IDQ3NCA1NlQ1MTMgMTM4UTUxNiAxNDkgNTE5IDE1MVQ1MzUgMTUzUTU1NSAxNTMgNTU1IDE0NVE1NTUgMTQ0IDU1MSAxMzBRNTM1IDcxIDUwMCAzM1E0NjYgLTEwIDQxOSAtMTBINDE0UTM2NyAtMTAgMzQ2IDE3VDMyNSA3NFEzMjUgOTAgMzYxIDE5MlQzOTggMzQ1UTM5OCA0MDQgMzU0IDQwNEgzNDlRMjY2IDQwNCAyMDUgMzA2TDE5OCAyOTNMMTY0IDE1OFExMzIgMjggMTI3IDE2UTExNCAtMTEgODMgLTExUTY5IC0xMSA1OSAtMlQ0OCAxNlE0OCAzMCAxMjEgMzIwTDE5NSA2MTZRMTk1IDYyOSAxODggNjMyVDE0OSA2MzdIMTI4UTEyMiA2NDMgMTIyIDY0NVQxMjQgNjY0UTEyOSA2ODMgMTM3IDY4M1oiLz4mI3hhOzxwYXRoIHN0cm9rZS13aWR0aD0iMSIgaWQ9IkUxLU1KTUFJTi0yOCIgZD0iTTk0IDI1MFE5NCAzMTkgMTA0IDM4MVQxMjcgNDg4VDE2NCA1NzZUMjAyIDY0M1QyNDQgNjk1VDI3NyA3MjlUMzAyIDc1MEgzMTVIMzE5UTMzMyA3NTAgMzMzIDc0MVEzMzMgNzM4IDMxNiA3MjBUMjc1IDY2N1QyMjYgNTgxVDE4NCA0NDNUMTY3IDI1MFQxODQgNThUMjI1IC04MVQyNzQgLTE2N1QzMTYgLTIyMFQzMzMgLTI0MVEzMzMgLTI1MCAzMTggLTI1MEgzMTVIMzAyTDI3NCAtMjI2UTE4MCAtMTQxIDEzNyAtMTRUOTQgMjUwWiIvPiYjeGE7PHBhdGggc3Ryb2tlLXdpZHRoPSIxIiBpZD0iRTEtTUpNQVRISS0zQzQiIGQ9Ik0zOSAyODRRMTggMjg0IDE4IDI5NFExOCAzMDEgNDUgMzM4VDk5IDM5OFExMzQgNDI1IDE2NCA0MjlRMTcwIDQzMSAzMzIgNDMxUTQ5MiA0MzEgNDk3IDQyOVE1MTcgNDI0IDUxNyA0MDJRNTE3IDM4OCA1MDggMzc2VDQ4NSAzNjBRNDc5IDM1OCAzODkgMzU4VDI5OSAzNTZRMjk4IDM1NSAyODMgMjc0VDI1MSAxMDlUMjMzIDIwUTIyOCA1IDIxNSAtNFQxODYgLTEzUTE1MyAtMTMgMTUzIDIwVjMwTDIwMyAxOTJRMjE0IDIyOCAyMjcgMjcyVDI0OCAzMzZMMjU0IDM1N1EyNTQgMzU4IDIwOCAzNThRMjA2IDM1OCAxOTcgMzU4VDE4MyAzNTlRMTA1IDM1OSA2MSAyOTVRNTYgMjg3IDUzIDI4NlQzOSAyODRaIi8+JiN4YTs8cGF0aCBzdHJva2Utd2lkdGg9IjEiIGlkPSJFMS1NSk1BSU4tMkMiIGQ9Ik03OCAzNVQ3OCA2MFQ5NCAxMDNUMTM3IDEyMVExNjUgMTIxIDE4NyA5NlQyMTAgOFEyMTAgLTI3IDIwMSAtNjBUMTgwIC0xMTdUMTU0IC0xNThUMTMwIC0xODVUMTE3IC0xOTRRMTEzIC0xOTQgMTA0IC0xODVUOTUgLTE3MlE5NSAtMTY4IDEwNiAtMTU2VDEzMSAtMTI2VDE1NyAtNzZUMTczIC0zVjlMMTcyIDhRMTcwIDcgMTY3IDZUMTYxIDNUMTUyIDFUMTQwIDBRMTEzIDAgOTYgMTdaIi8+JiN4YTs8cGF0aCBzdHJva2Utd2lkdGg9IjEiIGlkPSJFMS1NSk1BVEhJLTNCRCIgZD0iTTc0IDQzMVE3NSA0MzEgMTQ2IDQzNlQyMTkgNDQyUTIzMSA0NDIgMjMxIDQzNFEyMzEgNDI4IDE4NSAyNDFMMTM3IDUxSDE0MEwxNTAgNTVRMTYxIDU5IDE3NyA2N1QyMTQgODZUMjYxIDExOVQzMTIgMTY1UTQxMCAyNjQgNDQ1IDM5NFE0NTggNDQyIDQ5NiA0NDJRNTA5IDQ0MiA1MTkgNDM0VDUzMCA0MTFRNTMwIDM5MCA1MTYgMzUyVDQ2OSAyNjJUMzg4IDE2MlQyNjcgNzBUMTA2IDVRODEgLTIgNzEgLTJRNjYgLTIgNTkgLTFUNTEgMVE0NSA1IDQ1IDExUTQ1IDEzIDg4IDE4OEwxMzIgMzY0UTEzMyAzNzcgMTI1IDM4MFQ4NiAzODVINjVRNTkgMzkxIDU5IDM5M1Q2MSA0MTJRNjUgNDMxIDc0IDQzMVoiLz4mI3hhOzxwYXRoIHN0cm9rZS13aWR0aD0iMSIgaWQ9IkUxLU1KTUFJTi0yOSIgZD0iTTYwIDc0OUw2NCA3NTBRNjkgNzUwIDc0IDc1MEg4NkwxMTQgNzI2UTIwOCA2NDEgMjUxIDUxNFQyOTQgMjUwUTI5NCAxODIgMjg0IDExOVQyNjEgMTJUMjI0IC03NlQxODYgLTE0M1QxNDUgLTE5NFQxMTMgLTIyN1Q5MCAtMjQ2UTg3IC0yNDkgODYgLTI1MEg3NFE2NiAtMjUwIDYzIC0yNTBUNTggLTI0N1Q1NSAtMjM4UTU2IC0yMzcgNjYgLTIyNVEyMjEgLTY0IDIyMSAyNTBUNjYgNzI1UTU2IDczNyA1NSA3MzhRNTUgNzQ2IDYwIDc0OVoiLz4mI3hhOzxwYXRoIHN0cm9rZS13aWR0aD0iMSIgaWQ9IkUxLU1KTUFJTi0zRCIgZD0iTTU2IDM0N1E1NiAzNjAgNzAgMzY3SDcwN1E3MjIgMzU5IDcyMiAzNDdRNzIyIDMzNiA3MDggMzI4TDM5MCAzMjdINzJRNTYgMzMyIDU2IDM0N1pNNTYgMTUzUTU2IDE2OCA3MiAxNzNINzA4UTcyMiAxNjMgNzIyIDE1M1E3MjIgMTQwIDcwNyAxMzNINzBRNTYgMTQwIDU2IDE1M1oiLz4mI3hhOzxwYXRoIHN0cm9rZS13aWR0aD0iMSIgaWQ9IkUxLU1KU1oyLTIyMTEiIGQ9Ik02MCA5NDhRNjMgOTUwIDY2NSA5NTBIMTI2N0wxMzI1IDgxNVExMzg0IDY3NyAxMzg4IDY2OUgxMzQ4TDEzNDEgNjgzUTEzMjAgNzI0IDEyODUgNzYxUTEyMzUgODA5IDExNzQgODM4VDEwMzMgODgxVDg4MiA4OThUNjk5IDkwMkg1NzRINTQzSDI1MUwyNTkgODkxUTcyMiAyNTggNzI0IDI1MlE3MjUgMjUwIDcyNCAyNDZRNzIxIDI0MyA0NjAgLTU2TDE5NiAtMzU2UTE5NiAtMzU3IDQwNyAtMzU3UTQ1OSAtMzU3IDU0OCAtMzU3VDY3NiAtMzU4UTgxMiAtMzU4IDg5NiAtMzUzVDEwNjMgLTMzMlQxMjA0IC0yODNUMTMwNyAtMTk2UTEzMjggLTE3MCAxMzQ4IC0xMjRIMTM4OFExMzg4IC0xMjUgMTM4MSAtMTQ1VDEzNTYgLTIxMFQxMzI1IC0yOTRMMTI2NyAtNDQ5TDY2NiAtNDUwUTY0IC00NTAgNjEgLTQ0OFE1NSAtNDQ2IDU1IC00MzlRNTUgLTQzNyA1NyAtNDMzTDU5MCAxNzdRNTkwIDE3OCA1NTcgMjIyVDQ1MiAzNjZUMzIyIDU0NEw1NiA5MDlMNTUgOTI0UTU1IDk0NSA2MCA5NDhaIi8+JiN4YTs8cGF0aCBzdHJva2Utd2lkdGg9IjEiIGlkPSJFMS1NSk1BVEhJLTY5IiBkPSJNMTg0IDYwMFExODQgNjI0IDIwMyA2NDJUMjQ3IDY2MVEyNjUgNjYxIDI3NyA2NDlUMjkwIDYxOVEyOTAgNTk2IDI3MCA1NzdUMjI2IDU1N1EyMTEgNTU3IDE5OCA1NjdUMTg0IDYwMFpNMjEgMjg3UTIxIDI5NSAzMCAzMThUNTQgMzY5VDk4IDQyMFQxNTggNDQyUTE5NyA0NDIgMjIzIDQxOVQyNTAgMzU3UTI1MCAzNDAgMjM2IDMwMVQxOTYgMTk2VDE1NCA4M1ExNDkgNjEgMTQ5IDUxUTE0OSAyNiAxNjYgMjZRMTc1IDI2IDE4NSAyOVQyMDggNDNUMjM1IDc4VDI2MCAxMzdRMjYzIDE0OSAyNjUgMTUxVDI4MiAxNTNRMzAyIDE1MyAzMDIgMTQzUTMwMiAxMzUgMjkzIDExMlQyNjggNjFUMjIzIDExVDE2MSAtMTFRMTI5IC0xMSAxMDIgMTBUNzQgNzRRNzQgOTEgNzkgMTA2VDEyMiAyMjBRMTYwIDMyMSAxNjYgMzQxVDE3MyAzODBRMTczIDQwNCAxNTYgNDA0SDE1NFExMjQgNDA0IDk5IDM3MVQ2MSAyODdRNjAgMjg2IDU5IDI4NFQ1OCAyODFUNTYgMjc5VDUzIDI3OFQ0OSAyNzhUNDEgMjc4SDI3UTIxIDI4NCAyMSAyODdaIi8+JiN4YTs8cGF0aCBzdHJva2Utd2lkdGg9IjEiIGlkPSJFMS1NSk1BSU4tMzEiIGQ9Ik0yMTMgNTc4TDIwMCA1NzNRMTg2IDU2OCAxNjAgNTYzVDEwMiA1NTZIODNWNjAySDEwMlExNDkgNjA0IDE4OSA2MTdUMjQ1IDY0MVQyNzMgNjYzUTI3NSA2NjYgMjg1IDY2NlEyOTQgNjY2IDMwMiA2NjBWMzYxTDMwMyA2MVEzMTAgNTQgMzE1IDUyVDMzOSA0OFQ0MDEgNDZINDI3VjBINDE2UTM5NSAzIDI1NyAzUTEyMSAzIDEwMCAwSDg4VjQ2SDExNFExMzYgNDYgMTUyIDQ2VDE3NyA0N1QxOTMgNTBUMjAxIDUyVDIwNyA1N1QyMTMgNjFWNTc4WiIvPiYjeGE7PHBhdGggc3Ryb2tlLXdpZHRoPSIxIiBpZD0iRTEtTUpNQVRISS01MCIgZD0iTTI4NyA2MjhRMjg3IDYzNSAyMzAgNjM3UTIwNiA2MzcgMTk5IDYzOFQxOTIgNjQ4UTE5MiA2NDkgMTk0IDY1OVEyMDAgNjc5IDIwMyA2ODFUMzk3IDY4M1E1ODcgNjgyIDYwMCA2ODBRNjY0IDY2OSA3MDcgNjMxVDc1MSA1MzBRNzUxIDQ1MyA2ODUgMzg5UTYxNiAzMjEgNTA3IDMwM1E1MDAgMzAyIDQwMiAzMDFIMzA3TDI3NyAxODJRMjQ3IDY2IDI0NyA1OVEyNDcgNTUgMjQ4IDU0VDI1NSA1MFQyNzIgNDhUMzA1IDQ2SDMzNlEzNDIgMzcgMzQyIDM1UTM0MiAxOSAzMzUgNVEzMzAgMCAzMTkgMFEzMTYgMCAyODIgMVQxODIgMlExMjAgMiA4NyAyVDUxIDFRMzMgMSAzMyAxMVEzMyAxMyAzNiAyNVE0MCA0MSA0NCA0M1Q2NyA0NlE5NCA0NiAxMjcgNDlRMTQxIDUyIDE0NiA2MVExNDkgNjUgMjE4IDMzOVQyODcgNjI4Wk02NDUgNTU0UTY0NSA1NjcgNjQzIDU3NVQ2MzQgNTk3VDYwOSA2MTlUNTYwIDYzNVE1NTMgNjM2IDQ4MCA2MzdRNDYzIDYzNyA0NDUgNjM3VDQxNiA2MzZUNDA0IDYzNlEzOTEgNjM1IDM4NiA2MjdRMzg0IDYyMSAzNjcgNTUwVDMzMiA0MTJUMzE0IDM0NFEzMTQgMzQyIDM5NSAzNDJINDA3SDQzMFE1NDIgMzQyIDU5MCAzOTJRNjE3IDQxOSA2MzEgNDcxVDY0NSA1NTRaIi8+JiN4YTs8cGF0aCBzdHJva2Utd2lkdGg9IjEiIGlkPSJFMS1NSk1BVEhJLTNCNCIgZD0iTTE5NSA2MDlRMTk1IDY1NiAyMjcgNjg2VDMwMiA3MTdRMzE5IDcxNiAzNTEgNzA5VDQwNyA2OTdUNDMzIDY5MFE0NTEgNjgyIDQ1MSA2NjJRNDUxIDY0NCA0MzggNjI4VDQwMyA2MTJRMzgyIDYxMiAzNDggNjQxVDI4OCA2NzFUMjQ5IDY1N1QyMzUgNjI4UTIzNSA1ODQgMzM0IDQ2M1E0MDEgMzc5IDQwMSAyOTJRNDAxIDE2OSAzNDAgODBUMjA1IC0xMEgxOThRMTI3IC0xMCA4MyAzNlQzNiAxNTNRMzYgMjg2IDE1MSAzODJRMTkxIDQxMyAyNTIgNDM0UTI1MiA0MzUgMjQ1IDQ0OVQyMzAgNDgxVDIxNCA1MjFUMjAxIDU2NlQxOTUgNjA5Wk0xMTIgMTMwUTExMiA4MyAxMzYgNTVUMjA0IDI3UTIzMyAyNyAyNTYgNTFUMjkxIDExMVQzMDkgMTc4VDMxNiAyMzJRMzE2IDI2NyAzMDkgMjk4VDI5NSAzNDRUMjY5IDQwMEwyNTkgMzk2UTIxNSAzODEgMTgzIDM0MlQxMzcgMjU2VDExOCAxNzlUMTEyIDEzMFoiLz4mI3hhOzxwYXRoIHN0cm9rZS13aWR0aD0iMSIgaWQ9IkUxLU1KTUFJTi0yMjEyIiBkPSJNODQgMjM3VDg0IDI1MFQ5OCAyNzBINjc5UTY5NCAyNjIgNjk0IDI1MFQ2NzkgMjMwSDk4UTg0IDIzNyA4NCAyNTBaIi8+JiN4YTs8L2RlZnM+JiN4YTs8ZyBzdHJva2U9ImN1cnJlbnRDb2xvciIgZmlsbD0iY3VycmVudENvbG9yIiBzdHJva2Utd2lkdGg9IjAiIHRyYW5zZm9ybT0ibWF0cml4KDEgMCAwIC0xIDAgMCkiPiYjeGE7IDx1c2UgeGxpbms6aHJlZj0iI0UxLU1KTUFUSEktNjgiIHg9IjAiIHk9IjAiLz4mI3hhOyA8dXNlIHhsaW5rOmhyZWY9IiNFMS1NSk1BSU4tMjgiIHg9IjU3NiIgeT0iMCIvPiYjeGE7IDx1c2UgeGxpbms6aHJlZj0iI0UxLU1KTUFUSEktM0M0IiB4PSI5NjYiIHk9IjAiLz4mI3hhOyA8dXNlIHhsaW5rOmhyZWY9IiNFMS1NSk1BSU4tMkMiIHg9IjE0ODMiIHk9IjAiLz4mI3hhOyA8dXNlIHhsaW5rOmhyZWY9IiNFMS1NSk1BVEhJLTNCRCIgeD0iMTkyOCIgeT0iMCIvPiYjeGE7IDx1c2UgeGxpbms6aHJlZj0iI0UxLU1KTUFJTi0yOSIgeD0iMjQ1OSIgeT0iMCIvPiYjeGE7IDx1c2UgeGxpbms6aHJlZj0iI0UxLU1KTUFJTi0zRCIgeD0iMzEyNiIgeT0iMCIvPiYjeGE7PGcgdHJhbnNmb3JtPSJ0cmFuc2xhdGUoNDE4MiwwKSI+JiN4YTsgPHVzZSB4bGluazpocmVmPSIjRTEtTUpTWjItMjIxMSIgeD0iMCIgeT0iMCIvPiYjeGE7PGcgdHJhbnNmb3JtPSJ0cmFuc2xhdGUoMTQ3LC0xMDkwKSI+JiN4YTsgPHVzZSB0cmFuc2Zvcm09InNjYWxlKDAuNzA3KSIgeGxpbms6aHJlZj0iI0UxLU1KTUFUSEktNjkiIHg9IjAiIHk9IjAiLz4mI3hhOyA8dXNlIHRyYW5zZm9ybT0ic2NhbGUoMC43MDcpIiB4bGluazpocmVmPSIjRTEtTUpNQUlOLTNEIiB4PSIzNDUiIHk9IjAiLz4mI3hhOyA8dXNlIHRyYW5zZm9ybT0ic2NhbGUoMC43MDcpIiB4bGluazpocmVmPSIjRTEtTUpNQUlOLTMxIiB4PSIxMTI0IiB5PSIwIi8+JiN4YTs8L2c+JiN4YTsgPHVzZSB0cmFuc2Zvcm09InNjYWxlKDAuNzA3KSIgeGxpbms6aHJlZj0iI0UxLU1KTUFUSEktNTAiIHg9IjY0NSIgeT0iMTYyNyIvPiYjeGE7PC9nPiYjeGE7PGcgdHJhbnNmb3JtPSJ0cmFuc2xhdGUoNTc5MywwKSI+JiN4YTsgPHVzZSB4bGluazpocmVmPSIjRTEtTUpNQVRISS02OCIgeD0iMCIgeT0iMCIvPiYjeGE7IDx1c2UgdHJhbnNmb3JtPSJzY2FsZSgwLjcwNykiIHhsaW5rOmhyZWY9IiNFMS1NSk1BVEhJLTY5IiB4PSI4MTUiIHk9Ii0yMTMiLz4mI3hhOzwvZz4mI3hhOyA8dXNlIHhsaW5rOmhyZWY9IiNFMS1NSk1BVEhJLTNCNCIgeD0iNjcxNCIgeT0iMCIvPiYjeGE7PGcgdHJhbnNmb3JtPSJ0cmFuc2xhdGUoNzMzMiwwKSI+JiN4YTsgPHVzZSB4bGluazpocmVmPSIjRTEtTUpNQUlOLTI4IiB4PSIwIiB5PSIwIi8+JiN4YTs8ZyB0cmFuc2Zvcm09InRyYW5zbGF0ZSgzODksMCkiPiYjeGE7IDx1c2UgeGxpbms6aHJlZj0iI0UxLU1KTUFUSEktM0M0IiB4PSIwIiB5PSIwIi8+JiN4YTsgPHVzZSB4bGluazpocmVmPSIjRTEtTUpNQUlOLTIyMTIiIHg9IjczOSIgeT0iMCIvPiYjeGE7PGcgdHJhbnNmb3JtPSJ0cmFuc2xhdGUoMTc0MCwwKSI+JiN4YTsgPHVzZSB4bGluazpocmVmPSIjRTEtTUpNQVRISS0zQzQiIHg9IjAiIHk9IjAiLz4mI3hhOyA8dXNlIHRyYW5zZm9ybT0ic2NhbGUoMC43MDcpIiB4bGluazpocmVmPSIjRTEtTUpNQVRISS02OSIgeD0iNjE4IiB5PSItMjEzIi8+JiN4YTs8L2c+JiN4YTs8L2c+JiN4YTsgPHVzZSB4bGluazpocmVmPSIjRTEtTUpNQUlOLTI5IiB4PSIyOTExIiB5PSIwIi8+JiN4YTs8L2c+JiN4YTsgPHVzZSB4bGluazpocmVmPSIjRTEtTUpNQVRISS0zQjQiIHg9IjEwODAwIiB5PSIwIi8+JiN4YTs8ZyB0cmFuc2Zvcm09InRyYW5zbGF0ZSgxMTQxOCwwKSI+JiN4YTsgPHVzZSB4bGluazpocmVmPSIjRTEtTUpNQUlOLTI4IiB4PSIwIiB5PSIwIi8+JiN4YTs8ZyB0cmFuc2Zvcm09InRyYW5zbGF0ZSgzODksMCkiPiYjeGE7IDx1c2UgeGxpbms6aHJlZj0iI0UxLU1KTUFUSEktM0JEIiB4PSIwIiB5PSIwIi8+JiN4YTsgPHVzZSB4bGluazpocmVmPSIjRTEtTUpNQUlOLTIyMTIiIHg9Ijc1MiIgeT0iMCIvPiYjeGE7PGcgdHJhbnNmb3JtPSJ0cmFuc2xhdGUoMTc1MywwKSI+JiN4YTsgPHVzZSB4bGluazpocmVmPSIjRTEtTUpNQVRISS0zQkQiIHg9IjAiIHk9IjAiLz4mI3hhOyA8dXNlIHRyYW5zZm9ybT0ic2NhbGUoMC43MDcpIiB4bGluazpocmVmPSIjRTEtTUpNQVRISS02OSIgeD0iNjk5IiB5PSItMjEzIi8+JiN4YTs8L2c+JiN4YTs8L2c+JiN4YTsgPHVzZSB4bGluazpocmVmPSIjRTEtTUpNQUlOLTI5IiB4PSIyOTgxIiB5PSIwIi8+JiN4YTs8L2c+JiN4YTs8L2c+JiN4YTs8L3N2Zz4=;fontSize=18;" vertex="1" parent="1">
          <mxGeometry x="239" y="308" width="34" height="7" as="geometry" />
        </mxCell>
      </root>
    </mxGraphModel>
  </diagram>
</mxfile>
